<svg width="512" height="512" viewBox="0 0 512 512" fill="none" xmlns="http://www.w3.org/2000/svg">
  <defs>
    <linearGradient id="pinBase" x1="152" y1="64" x2="386" y2="392" gradientUnits="userSpaceOnUse">
      <stop stop-color="#F2A245"/>
      <stop offset="0.42" stop-color="#CD6921"/>
      <stop offset="1" stop-color="#7E390D"/>
    </linearGradient>
    <linearGradient id="pinAccent" x1="179" y1="124" x2="316" y2="352" gradientUnits="userSpaceOnUse">
      <stop stop-color="#F4A64A"/>
      <stop offset="1" stop-color="#E78E34"/>
    </linearGradient>
    <linearGradient id="planeFill" x1="112" y1="210" x2="292" y2="210" gradientUnits="userSpaceOnUse">
      <stop stop-color="#F48822"/>
      <stop offset="1" stop-color="#F07A14"/>
    </linearGradient>
  </defs>
  <path
    fill-rule="evenodd"
    clip-rule="evenodd"
    d="M257.5 64C335.1 64 390 118.8 390 196.4C390 244.5 366.5 286.5 333.5 328.8C307.7 361.8 278.2 393.3 257.5 448C236.8 393.3 207.3 361.8 181.5 328.8C148.5 286.5 125 244.5 125 196.4C125 118.8 179.9 64 257.5 64ZM257.5 115C213.6 115 182 147 182 190.4C182 234.4 216.8 270.5 257.5 270.5C298.2 270.5 333 234.4 333 190.4C333 147 301.4 115 257.5 115Z"
    fill="url(#pinBase)"
  />
  <path
    d="M170 164C169.8 117.7 208.7 83 249.8 83C222.2 93 199.7 120.4 199.7 155.8C199.7 181.6 211.7 202.9 228.6 219.5L307.1 296.5L257.5 386C237.7 346.7 212.9 320.1 190 290.9C162.6 255.8 170.1 205.2 170 164Z"
    fill="url(#pinAccent)"
  />
  <path
    d="M311.4 82C351.1 97.5 377 137.4 377 182.6C377 235.4 350.4 279.6 312.3 325.8C292.8 349.5 273.3 372.3 257.5 400.6L225.7 370.6L311.4 82Z"
    fill="#6C2D0A"
    fill-opacity="0.6"
  />
  <path
    d="M136.3 206.7C133.9 207 131.7 208 129.9 209.8C126 213.6 126.4 219.6 130.8 222.9L185.7 262.7L121.8 266.4C116 266.8 111.5 271.5 111.5 277.2C111.5 283 116.2 287.8 122.1 288L188.1 289.9L221.9 316.2C226.6 319.9 233.5 319.3 237.5 314.8C239.2 312.8 240 310.3 239.9 307.7L239 272.6L285.7 263.9C289.6 263.2 292.5 260 293 256.1C293.4 252.2 291.4 248.4 287.9 246.9L252.4 231.7L265.2 213.6C267.7 210.1 267.6 205.3 264.9 201.9C262.2 198.4 257.6 197.1 253.4 198.7L221 211.1L206.5 196.6C202.4 192.5 195.9 192.1 191.3 195.6C188 198.1 186.4 202.3 186.9 206.4L188.4 219.6L136.3 206.7Z"
    fill="url(#planeFill)"
  />
</svg>
